<svg xmlns:xlink="http://www.w3.org/1999/xlink" xmlns="http://www.w3.org/2000/svg" class="home-module--homeFees_imgWrapper_img--CprfW" width="409" height="415" viewBox="0 0 409 415"><defs><path id="prefix__a" d="M348.937 88.918c-6.779 5.435-12.837 10.252-18.247 14.518-1.816-1.597-3.813-2.978-5.95-4.112 5.594-4.393 11.936-9.425 19.118-15.182 1.894 1.365 3.602 2.97 5.08 4.776z"></path><path id="prefix__b" d="M313.291 116.965c-3.836 2.936-7.159 5.435-10.036 7.555-1.481-.552-2.709-1.077-3.595-1.499-.165-.943-.384-2.334-.614-3.986 2.686-1.993 5.843-4.354 9.503-7.148 1.348 1.896 2.943 3.603 4.742 5.078z"></path><path id="prefix__c" d="M313.245 49.89c-3.645 3.193-7.646 6.772-11.893 10.616 2.436-4.53 6.495-8.232 11.893-10.616z"></path><path id="prefix__d" d="M283.71 67.19c.807 2.616 1.203 5.34 1.175 8.076v.2l-4.922 4.495-2.575 2.372c-2.908.25-6.756.506-11.069.767l9.001-8.221 8.39-7.688z"></path><path id="prefix__e" d="M243.775 103.46c1.37 1.872 3.03 3.515 4.915 4.867-5.095 4.545-9.975 8.834-14.487 12.709l-1.953 1.667c-1.983-1.26-3.822-2.734-5.486-4.392 1.45-1.227 3.004-2.557 4.661-3.99 3.898-3.365 8.042-7.006 12.35-10.862z"></path><path id="prefix__f" d="M203.533 75.438c0 2.894-.215 5.75-2.26 6.252-.767.207-2.739.429-5.498.663l7.758-6.915z"></path><path id="prefix__g" d="M181.377 47.682c2.307.517 4.54 1.323 6.645 2.4-2.325 3.58-4.9 7.515-7.75 11.842-.998-2.567-2.417-4.744-4.198-6.132 1.819-2.775 3.591-5.484 5.303-8.11z"></path><path id="prefix__h" d="M166.97 108.058c2.005 1.497 4.266 2.618 6.672 3.308-5.782 5.143-11.299 10.019-16.41 14.48-2.338-.863-4.571-1.988-6.656-3.354 5.072-4.407 10.585-9.271 16.394-14.434z"></path><path id="prefix__i" d="M171.217 75.615c-1.161 1.75-2.36 3.554-3.595 5.412l-2.033 3.066c-2.954.13-5.84.256-8.537.383l4.815-7.24.917-1.38 8.433-.241z"></path><path id="prefix__j" d="M162.673 49.261l-1.458 1.188c-6.139 5.006-12.538 10.218-18.995 15.435 1.581-2.451 3.428-4.72 5.506-6.769 4.232-4.299 9.326-7.656 14.947-9.854z"></path><path id="prefix__k" d="M119.465 36.525c-.908-2.483-2.015-4.889-3.311-7.194 2.535-3.533 4.743-6.717 6.626-9.55 1.396-2.105 2.54-3.918 3.48-5.474.142 2.377.383 6.715.72 11.602-2.155 3.168-4.66 6.707-7.515 10.616z"></path><path id="prefix__l" d="M122.062 13.073c-3.153 2.235-7.228 5.305-12.465 9.524-2.122-1.015-4.742-1.307-9.277-1.337 2.583-2.136 5.013-4.105 7.29-5.906.926-.734 1.82-1.44 2.685-2.12 5.083-.033 9.005-.087 11.767-.16z"></path><path id="prefix__m" d="M119.05 75.584v8.773c-2.079 1.63-4.137 3.23-6.173 4.799h-.433c-.349-2.418-.889-4.804-1.615-7.137 2.7-2.098 5.441-4.243 8.222-6.435z"></path><path id="prefix__n" d="M88.66 65.366h8.729c-2.45 3.15-4.764 6.16-6.94 9.03h-8.637c2.133-2.86 4.416-5.87 6.849-9.03z"></path><path id="prefix__b" d="M313.291 116.965c-3.836 2.936-7.159 5.435-10.036 7.555-1.481-.552-2.709-1.077-3.595-1.499-.165-.943-.384-2.334-.614-3.986 2.686-1.993 5.843-4.354 9.503-7.148 1.348 1.896 2.943 3.603 4.742 5.078z"></path><path id="prefix__b" d="M313.291 116.965c-3.836 2.936-7.159 5.435-10.036 7.555-1.481-.552-2.709-1.077-3.595-1.499-.165-.943-.384-2.334-.614-3.986 2.686-1.993 5.843-4.354 9.503-7.148 1.348 1.896 2.943 3.603 4.742 5.078z"></path><path id="prefix__c" d="M313.245 49.89c-3.645 3.193-7.646 6.772-11.893 10.616 2.436-4.53 6.495-8.232 11.893-10.616z"></path><path id="prefix__c" d="M313.245 49.89c-3.645 3.193-7.646 6.772-11.893 10.616 2.436-4.53 6.495-8.232 11.893-10.616z"></path><path id="prefix__d" d="M283.71 67.19c.807 2.616 1.203 5.34 1.175 8.076v.2l-4.922 4.495-2.575 2.372c-2.908.25-6.756.506-11.069.767l9.001-8.221 8.39-7.688z"></path><path id="prefix__d" d="M283.71 67.19c.807 2.616 1.203 5.34 1.175 8.076v.2l-4.922 4.495-2.575 2.372c-2.908.25-6.756.506-11.069.767l9.001-8.221 8.39-7.688z"></path><path id="prefix__e" d="M243.775 103.46c1.37 1.872 3.03 3.515 4.915 4.867-5.095 4.545-9.975 8.834-14.487 12.709l-1.953 1.667c-1.983-1.26-3.822-2.734-5.486-4.392 1.45-1.227 3.004-2.557 4.661-3.99 3.898-3.365 8.042-7.006 12.35-10.862z"></path><path id="prefix__e" d="M243.775 103.46c1.37 1.872 3.03 3.515 4.915 4.867-5.095 4.545-9.975 8.834-14.487 12.709l-1.953 1.667c-1.983-1.26-3.822-2.734-5.486-4.392 1.45-1.227 3.004-2.557 4.661-3.99 3.898-3.365 8.042-7.006 12.35-10.862z"></path><path id="prefix__f" d="M203.533 75.438c0 2.894-.215 5.75-2.26 6.252-.767.207-2.739.429-5.498.663l7.758-6.915z"></path><path id="prefix__f" d="M203.533 75.438c0 2.894-.215 5.75-2.26 6.252-.767.207-2.739.429-5.498.663l7.758-6.915z"></path><path id="prefix__g" d="M181.377 47.682c2.307.517 4.54 1.323 6.645 2.4-2.325 3.58-4.9 7.515-7.75 11.842-.998-2.567-2.417-4.744-4.198-6.132 1.819-2.775 3.591-5.484 5.303-8.11z"></path><path id="prefix__g" d="M181.377 47.682c2.307.517 4.54 1.323 6.645 2.4-2.325 3.58-4.9 7.515-7.75 11.842-.998-2.567-2.417-4.744-4.198-6.132 1.819-2.775 3.591-5.484 5.303-8.11z"></path><path id="prefix__h" d="M166.97 108.058c2.005 1.497 4.266 2.618 6.672 3.308-5.782 5.143-11.299 10.019-16.41 14.48-2.338-.863-4.571-1.988-6.656-3.354 5.072-4.407 10.585-9.271 16.394-14.434z"></path><path id="prefix__h" d="M166.97 108.058c2.005 1.497 4.266 2.618 6.672 3.308-5.782 5.143-11.299 10.019-16.41 14.48-2.338-.863-4.571-1.988-6.656-3.354 5.072-4.407 10.585-9.271 16.394-14.434z"></path><path id="prefix__i" d="M171.217 75.615c-1.161 1.75-2.36 3.554-3.595 5.412l-2.033 3.066c-2.954.13-5.84.256-8.537.383l4.815-7.24.917-1.38 8.433-.241z"></path><path id="prefix__i" d="M171.217 75.615c-1.161 1.75-2.36 3.554-3.595 5.412l-2.033 3.066c-2.954.13-5.84.256-8.537.383l4.815-7.24.917-1.38 8.433-.241z"></path><path id="prefix__j" d="M162.673 49.261l-1.458 1.188c-6.139 5.006-12.538 10.218-18.995 15.435 1.581-2.451 3.428-4.72 5.506-6.769 4.232-4.299 9.326-7.656 14.947-9.854z"></path><path id="prefix__j" d="M162.673 49.261l-1.458 1.188c-6.139 5.006-12.538 10.218-18.995 15.435 1.581-2.451 3.428-4.72 5.506-6.769 4.232-4.299 9.326-7.656 14.947-9.854z"></path><path id="prefix__k" d="M119.465 36.525c-.908-2.483-2.015-4.889-3.311-7.194 2.535-3.533 4.743-6.717 6.626-9.55 1.396-2.105 2.54-3.918 3.48-5.474.142 2.377.383 6.715.72 11.602-2.155 3.168-4.66 6.707-7.515 10.616z"></path><path id="prefix__k" d="M119.465 36.525c-.908-2.483-2.015-4.889-3.311-7.194 2.535-3.533 4.743-6.717 6.626-9.55 1.396-2.105 2.54-3.918 3.48-5.474.142 2.377.383 6.715.72 11.602-2.155 3.168-4.66 6.707-7.515 10.616z"></path><path id="prefix__l" d="M122.062 13.073c-3.153 2.235-7.228 5.305-12.465 9.524-2.122-1.015-4.742-1.307-9.277-1.337 2.583-2.136 5.013-4.105 7.29-5.906.926-.734 1.82-1.44 2.685-2.12 5.083-.033 9.005-.087 11.767-.16z"></path><path id="prefix__l" d="M122.062 13.073c-3.153 2.235-7.228 5.305-12.465 9.524-2.122-1.015-4.742-1.307-9.277-1.337 2.583-2.136 5.013-4.105 7.29-5.906.926-.734 1.82-1.44 2.685-2.12 5.083-.033 9.005-.087 11.767-.16z"></path><path id="prefix__m" d="M119.05 75.584v8.773c-2.079 1.63-4.137 3.23-6.173 4.799h-.433c-.349-2.418-.889-4.804-1.615-7.137 2.7-2.098 5.441-4.243 8.222-6.435z"></path><path id="prefix__m" d="M119.05 75.584v8.773c-2.079 1.63-4.137 3.23-6.173 4.799h-.433c-.349-2.418-.889-4.804-1.615-7.137 2.7-2.098 5.441-4.243 8.222-6.435z"></path><path id="prefix__n" d="M88.66 65.366h8.729c-2.45 3.15-4.764 6.16-6.94 9.03h-8.637c2.133-2.86 4.416-5.87 6.849-9.03z"></path><path id="prefix__n" d="M88.66 65.366h8.729c-2.45 3.15-4.764 6.16-6.94 9.03h-8.637c2.133-2.86 4.416-5.87 6.849-9.03z"></path></defs><g fill="none" fill-rule="evenodd"><g fill-rule="nonzero" transform="translate(0 120)" fill="none"><path fill="#333D47" d="M79.763 32.003V54.93C74.975 59.184 58.555 74.089 55.6 76.803V53.719c2.515-2.294 18.992-17.158 24.163-21.716z"></path><path fill="#3E7EEE" d="M402.616 36.257l4.408 5.308c-.284.238-28.917 23.962-58.044 47.307l-.043.034c-1.477-1.805-3.185-3.41-5.08-4.775l2.59-2.073c28.449-22.832 55.896-45.575 56.169-45.8z"></path><path fill="#333D47" d="M349.9 70.054l-5.755 1.563c-4.462-12-10.278-17.565-18.285-17.707.617-1.224 1.209-2.403 1.776-3.537.599-1.209 1.153-2.345 1.662-3.407 7.872.126 13.961 1.763 17.802 2.598.537 4.687 2.102 15.802 2.8 20.49zM348.937 88.918c2.843 3.549 4.436 7.85 4.436 13.449 0 17.366-16.498 25.874-31.637 25.874-6.841 0-13.877-1.989-18.481-3.71 2.877-2.12 6.2-4.599 10.036-7.554 3.197 2.671 7.232 4.135 11.399 4.135 6.607 0 9.91-3.993 9.91-9.03 0-3.192-.917-5.894-3.91-8.654 5.399-4.27 11.468-9.087 18.247-14.51z"></path><path fill="#333D47" d="M343.858 84.131c-7.182 5.749-13.524 10.789-19.118 15.181-1.062-.593-2.237-1.2-3.526-1.82-5.057-2.45-10.048-4.983-14.046-8.325l3.395-6.32c2.525-4.687 5.084-9.444 7.528-14.043 2.037 2.875 5.89 5.136 11.64 7.665 5.498 2.453 10.305 4.841 14.127 7.662z"></path><path fill="#3E7EEE" d="M333.154 30.213c2.03 2.13 1.016 5.366-.3 8.765-.805 2.078-1.972 4.71-3.54 7.988h-.972c-2.339-.008-4.674.18-6.982.56 1.534-3.12 2.685-5.574 3.56-7.494-2.616 2.085-6.33 5.186-11.598 9.8l-.077.066c-5.398 2.383-9.457 6.086-11.893 10.616-5.16 4.657-10.7 9.708-16.448 14.947v-.199c.028-2.736-.368-5.46-1.174-8.075 10.31-9.402 19.85-18.048 27.513-24.694 5.252-4.55 9.207-7.8 12.07-9.93 2.973-2.216 7.07-5.255 9.84-2.35z"></path><path fill="#333D47" d="M307.168 89.167c-1.9-1.543-3.57-3.35-4.957-5.366.115-2.806 1.44-5.526 2.177-6.925 5.682-10.566 9.418-18.188 13.742-26.769.345-.69 2.915-1.953 3.23-2.586 2.308-.38 4.643-.567 6.982-.56h.971c.497 1.087 1.093 2.626.497 3.832-.565 1.135-2.06 2.746-3.935 3.114h-.314c-4.869 0-9.208 3.472-9.208 9.198-.049 2.037.564 4.035 1.746 5.695.03 6.017-.865 12.999-3.405 17.686l-7.526 2.681z"></path><path fill="#3E7EEE" d="M324.74 99.312c2.137 1.135 4.134 2.515 5.95 4.113-6.748 5.32-12.495 9.788-17.399 13.54-1.799-1.475-3.394-3.182-4.742-5.078 4.55-3.476 9.891-7.638 16.19-12.575zM316.345 63.109c0-5.75 4.347-9.199 9.208-9.199h.315c-2.302 4.53-4.988 9.609-7.785 14.894-1.179-1.661-1.789-3.66-1.738-5.695z"></path><path fill="#333D47" d="M321.36 47.525c-.315.633-.649 1.296-.994 1.985-4.324 8.582-10.202 19.513-15.884 30.08-.767 1.402-1.511 2.812-2.27 4.215-2.245-3.327-3.596-7.336-3.596-12.356-.025-3.816.909-7.577 2.717-10.939 4.266-3.832 8.267-7.424 11.893-10.616 2.6-1.131 5.333-1.927 8.134-2.369z"></path><use fill="#3E7EEE" style="mix-blend-mode:darken" xlink:href="#prefix__b"></use><use stroke="#3E7EEE" stroke-width="0.2px" xlink:href="#prefix__b" fill="none"></use><path fill="#333D47" d="M302.614 99.925c1.431 4.285 3.395 8.467 5.935 11.962-3.66 2.794-6.806 5.155-9.503 7.148-.476-3.334-1.047-7.742-1.508-11.713 1.201-2.3 2.463-4.71 3.756-7.159l1.32-.238z"></path><path fill="#3E7EEE" d="M296.878 100.964c.15 1.744.384 3.97.66 6.358-1.324 2.55-2.578 4.983-3.733 7.283-2.858 5.699-4.604 9.558-5.713 12.172 2.414-1.59 5.905-4.032 10.954-7.757.234 1.652.449 3.043.614 3.986.886.421 2.114.946 3.595 1.498-16.563 12.219-18.477 12.054-20.031 11.924-1.356-.109-2.563-.897-3.208-2.093-1.17-2.146-1.331-4.772 6.722-21.03 4.174-8.432 9.814-18.983 15.473-29.511 1.388 2.015 3.057 3.822 4.957 5.365-1.995 3.714-3.97 7.413-5.874 10.996l-4.416.81z"></path><use fill="#3E7EEE" style="mix-blend-mode:darken" xlink:href="#prefix__c"></use><use stroke="#3E7EEE" stroke-width="0.2px" xlink:href="#prefix__c" fill="none"></use><path fill="#333D47" d="M296.878 100.964l4.416-.8c.706 3.379-.157 7.693-3.756 7.158-.276-2.387-.51-4.606-.66-6.358zM284.885 75.465c0 2.882-.219 5.715-2.26 6.225-1.737.321-3.492.537-5.256.643l2.594-2.372 4.922-4.496zM281.225 104.44l3.127 4.688c-10.605 15.63-24.509 19.102-31.81 19.102-8 0-14.81-2.028-20.303-5.527l1.953-1.667c4.515-3.875 9.392-8.164 14.487-12.71 3.723 2.615 8.176 3.99 12.726 3.93 6.775 0 13.57-2.435 19.82-7.816z"></path><use fill="#3E7EEE" style="mix-blend-mode:darken" xlink:href="#prefix__d"></use><use stroke="#3E7EEE" stroke-width="0.2px" xlink:href="#prefix__d" fill="none"></use><path fill="#3E7EEE" d="M266.3 83.092c4.313-.253 8.16-.51 11.069-.766-9.71 8.892-19.548 17.852-28.679 26-1.886-1.351-3.545-2.994-4.915-4.867 7.198-6.416 14.844-13.36 22.525-20.367z"></path><path fill="#333D47" d="M264.593 48.165c9.145 2.768 16.312 9.9 19.118 19.026l-8.41 7.665-9 8.236c-7.989.468-17.576.92-25.802 1.269l.483-.705c1.88-2.76 3.67-5.388 5.372-7.884 4.431-.111 8.824-.222 13.508-.334 2.433-.172 3.476-.52 3.476-3.472.112-5.603-1.534-11.425-4.504-14.848 2.172-3.319 4.086-6.29 5.759-8.953zM256.202 46.958c.334 0 .668 0 .998.02-1.435 2.257-2.977 4.637-4.604 7.105-6.622.092-12.277 7.604-13.632 20.275l-3.694 5.415c-5.786 8.482-11.71 17.163-16.881 25.005-1.586-4.638-2.38-9.507-2.352-14.407 0-7.93 2.444-15.787 6.169-22.268 7.01-6.175 13.716-12.012 19.828-17.205.644-.55 1.275-1.082 1.891-1.598 3.913-1.529 8.076-2.323 12.277-2.342z"></path><path fill="#3E7EEE" d="M252.726 54.079c2.406 0 4.458 1.15 6.1 3.04-3.452 5.28-7.592 11.444-12.48 18.653l-7.527.188c.042-.545.092-1.077.15-1.602 4.741-6.964 9.449-13.913 13.63-20.275l.127-.004z"></path><path fill="#333D47" d="M252.6 54.083c.217-3.174 1.08-4.9 4.604-7.106 2.505.073 4.99.473 7.393 1.188 1.163 3.606-1.426 8.784-5.755 8.953-1.642-1.882-3.695-3.039-6.1-3.039l-.142.004z"></path><use fill="#3E7EEE" style="mix-blend-mode:darken" xlink:href="#prefix__e"></use><use stroke="#3E7EEE" stroke-width="0.2px" xlink:href="#prefix__e" fill="none"></use><path fill="#333D47" d="M246.346 75.772c.216 2.11-1.735 4.972-5.855 8.589l-2.547.107c.04 1.13.12 2.226.238 3.289-2.505 13.143-5.94 18.634-16.329 24.345-1.417-2.308-2.575-4.764-3.453-7.324 2.357-7.619 7.429-16.92 15.216-27.902l5.352-2.522c-.057.525-.107 1.058-.15 1.602l7.528-.184z"></path><path fill="#3E7EEE" stroke="#3E7EEE" stroke-width="0.2px" d="M243.937 49.3c-.617.51-1.247 1.043-1.892 1.598-6.112 5.193-12.818 11.03-19.828 17.205 1.867-3.296 4.178-6.32 6.868-8.988 4.208-4.274 9.268-7.618 14.852-9.815z"></path><path fill="#3E7EEE" d="M240.499 84.36c-.767 1.132-1.535 2.262-2.302 3.397-.115-1.063-.194-2.16-.238-3.289l2.54-.107z"></path><path fill="#333D47" d="M243.775 103.46c-4.308 3.832-8.44 7.496-12.35 10.86-1.662 1.434-3.216 2.764-4.661 3.99-1.873-1.87-3.518-3.954-4.903-6.208 4.83-7.443 10.573-15.902 16.328-24.334.695 6.516 2.686 11.763 5.586 15.691z"></path><path fill="#3E7EEE" d="M211.855 114.938c1.968-3.143 4.178-6.565 6.545-10.16.878 2.56 2.036 5.016 3.453 7.324-1.13 1.735-2.206 3.41-3.227 5.024-4.339 6.869-6.764 11.223-8.114 13.97 3.015-2.035 8-5.814 16.244-12.785 1.664 1.658 3.504 3.131 5.487 4.392-20.335 17.316-24.171 18.163-26.976 17.423-1.39-.36-2.515-1.38-3.008-2.729-1.074-2.87.135-7.324 9.596-22.459zM207.738 11.747c1.684 3.166-.077 8.087-19.716 38.327-2.105-1.077-4.338-1.883-6.645-2.4 2.708-4.162 5.256-8.12 7.558-11.766 4.19-6.634 6.975-11.314 8.824-14.61-8.33 6.194-22.168 17.439-35.078 27.956-5.627 2.195-10.726 5.553-14.963 9.853-2.078 2.048-3.924 4.318-5.506 6.769-7.75 6.282-15.603 12.556-23.161 18.481v-8.773c12.584-9.93 25.724-20.635 37.81-30.477C197.866 11.7 201.749 9.152 205.16 9.847c1.1.216 2.046.914 2.578 1.9zM203.533 75.438C216.13 64.22 228.383 53.42 238.83 44.57c24.332-20.597 28.875-22.153 31.687-21.988 1.139.053 2.21.561 2.97 1.41 2.593 2.948 1.35 7.842-8.898 24.173-2.402-.715-4.887-1.115-7.393-1.188l.656-1.039c4.343-6.875 6.787-11.264 8.16-14.054-3.729 2.503-10.358 7.5-22.08 17.416-5.583 2.197-10.643 5.54-14.85 9.815-2.691 2.668-5.002 5.692-6.868 8.988-9.945 8.757-20.503 18.193-30.855 27.446-6.08 5.434-12.031 10.754-17.72 15.817-2.407-.69-4.667-1.811-6.673-3.308 6.308-5.6 12.964-11.547 19.79-17.65l9.016-8.048c2.758-.234 4.719-.456 5.497-.663 2.05-.517 2.256-3.365 2.264-6.259z"></path><use fill="#3E7EEE" style="mix-blend-mode:darken" xlink:href="#prefix__f"></use><use stroke="#3E7EEE" stroke-width="0.2px" xlink:href="#prefix__f" fill="none"></use><path fill="#333D47" d="M199.888 104.44l3.127 4.688c-10.604 15.63-24.512 19.102-31.813 19.102-4.76.046-9.49-.761-13.965-2.384 5.11-4.461 10.627-9.337 16.409-14.48 2.088.599 4.25.898 6.422.89 6.776 0 13.555-2.435 19.82-7.816zM203.533 75.438l-7.758 6.9c-6.975.586-19.08 1.222-30.186 1.728L167.622 81c1.236-1.855 2.434-3.66 3.595-5.412l7.29-.176c2.436-.173 3.48-.522 3.48-3.473.08-3.425-.5-6.834-1.708-10.041 2.85-4.327 5.425-8.264 7.75-11.843 9.642 4.932 15.635 15.012 15.512 25.184l-.008.2z"></path><use fill="#3E7EEE" style="mix-blend-mode:darken" xlink:href="#prefix__g"></use><use stroke="#3E7EEE" stroke-width="0.2px" xlink:href="#prefix__g" fill="none"></use><path fill="#3E7EEE" d="M162.784 75.83c4.474-6.727 9.001-13.534 13.29-20.053 1.78 1.403 3.2 3.58 4.198 6.132-2.755 4.185-5.755 8.735-9.055 13.69l-8.433.23z"></path><use fill="#3E7EEE" style="mix-blend-mode:darken" xlink:href="#prefix__h"></use><use stroke="#3E7EEE" stroke-width="0.2px" xlink:href="#prefix__h" fill="none"></use><use fill="#3E7EEE" style="mix-blend-mode:darken" xlink:href="#prefix__i"></use><use stroke="#3E7EEE" stroke-width="0.2px" xlink:href="#prefix__i" fill="none"></use><use fill="#3E7EEE" style="mix-blend-mode:darken" xlink:href="#prefix__j"></use><use stroke="#3E7EEE" stroke-width="0.2px" xlink:href="#prefix__j" fill="none"></use><path fill="#3E7EEE" d="M157.052 84.45c2.686-.112 5.583-.239 8.537-.384-2.436 3.664-4.88 7.343-7.29 10.98-.966-3.24-1.526-6.587-1.669-9.965.142-.203.288-.417.422-.632z"></path><path fill="#333D47" d="M166.97 108.058c-5.809 5.163-11.322 10.027-16.394 14.434-2.423-1.58-4.623-3.478-6.541-5.641 4.343-6.754 9.227-14.181 14.26-21.79 1.777 5.788 4.823 10.127 8.675 12.997z"></path><path fill="#333D47" d="M158.295 95.05c-1.635 12.714-5.758 20.265-14.26 21.789-1.65-1.864-3.094-3.9-4.305-6.075 3.188-11.923 8.685-19.473 16.881-25.679.147 3.379.713 6.726 1.684 9.965z"></path><path fill="#333D47" d="M174.85 46.958c2.195-.005 4.383.238 6.523.724-1.711 2.626-3.484 5.335-5.302 8.095-1.325-1.09-2.985-1.69-4.7-1.698-6.956 0-12.865 8.16-13.908 21.88l5.317-.13-.917 1.38-4.814 7.24-.453.02c0 .206 0 .413.027.62-5.89 8.869-11.717 17.684-16.882 25.68-3.307-5.919-5.033-12.936-5.033-20.41 0-8.857 3.046-17.63 7.523-24.483 6.457-5.216 12.853-10.429 18.996-15.434l1.458-1.188c3.881-1.499 8.004-2.277 12.165-2.296z"></path><path fill="#3E7EEE" d="M132.51 122.117c2.194-3.515 4.626-7.325 7.22-11.337 1.211 2.172 2.655 4.208 4.305 6.07-1.497 2.327-2.932 4.577-4.286 6.723-4.688 7.435-7.673 12.502-9.591 15.96 3.268-2.519 8.099-6.451 15.223-12.564 1.665-1.431 3.39-2.923 5.176-4.477 2.085 1.366 4.318 2.49 6.656 3.354-2.965 2.59-5.793 5.04-8.46 7.32-18.799 16.07-22.16 17.489-24.385 17.63h-.276c-1.445.024-2.789-.74-3.507-1.993-1.404-2.468-1.312-5.496 11.924-26.686zM135.866 1.464c3.603 3.243.768 9.425-5.302 19.006-1.059 1.671-2.253 3.484-3.583 5.439-.322-4.887-.58-9.225-.721-11.602 1.2-1.94 2.293-3.945 3.272-6.005-2.586 1.434-5.081 3.028-7.47 4.771-2.77.07-6.69.123-11.759.161 5.486-4.262 10.017-7.481 13.49-9.581 4.504-2.733 9.08-4.883 12.073-2.189z"></path><path fill="#333D47" d="M128.09 41.056l-6.78 1.042c-.548-1.897-1.17-3.775-1.845-5.573 2.85-3.909 5.358-7.448 7.527-10.616.315 4.986.706 10.54 1.098 15.147z"></path><use fill="#3E7EEE" style="mix-blend-mode:darken" xlink:href="#prefix__k"></use><use stroke="#3E7EEE" stroke-width="0.2px" xlink:href="#prefix__k" fill="none"></use><path fill="#333D47" d="M126.26 14.307c-.94 1.556-2.084 3.37-3.48 5.473-1.878 2.831-4.086 6.015-6.626 9.551-.708-1.268-1.544-2.461-2.494-3.56-1.416-1.483-2.624-2.495-4.063-3.174 5.237-4.216 9.312-7.282 12.465-9.524 1.919-.046 3.28-.1 4.117-.153.02.326.046.793.08 1.387z"></path><use fill="#3E7EEE" style="mix-blend-mode:darken" xlink:href="#prefix__l"></use><use stroke="#3E7EEE" stroke-width="0.2px" xlink:href="#prefix__l" fill="none"></use><path fill="#3E7EEE" d="M119.465 36.525c-5.195 7.111-11.51 15.399-18.945 24.863-1.062 1.349-2.1 2.675-3.116 3.978h-8.743c2.033-2.644 4.171-5.391 6.414-8.24 8.51-10.82 15.566-20.122 21.079-27.795 1.296 2.305 2.403 4.711 3.31 7.194z"></path><path fill="#333D47" d="M119.05 84.357v4.799h-6.173c2.034-1.57 4.092-3.169 6.174-4.799z"></path><use fill="#3E7EEE" style="mix-blend-mode:darken" xlink:href="#prefix__m"></use><use stroke="#3E7EEE" stroke-width="0.2px" xlink:href="#prefix__m" fill="none"></use><path fill="#3E7EEE" d="M80.427 112.34c-.437-1.955-.594-4.477-.644-7.75 5.37-3.45 11.92-8.095 19.87-14.047 3.602-2.683 7.343-5.557 11.176-8.531.727 2.334 1.267 4.723 1.615 7.144h.433c-4.12 3.177-8.137 6.216-11.974 9.052-8.532 6.32-15.212 10.912-20.476 14.131z"></path><path fill="#333D47" d="M110.829 82.02c-1.98-5.93-5.237-7.616-12.466-7.616h-7.915c2.172-2.867 4.486-5.877 6.941-9.03h.974c10.256 0 11.648-2.606 14.254-14.76h6.434v24.978c-2.773 2.18-5.514 4.322-8.222 6.427zM92.881 13.269c3.947 0 14.334-.012 17.418-.035-.875.68-1.77 1.386-2.685 2.12-2.272 1.801-4.702 3.77-7.29 5.906H86.37c-5.912 0-6.607.349-6.607 6.255V38.87c-5.171 4.553-10.699 9.492-16.581 14.817-2.538 2.3-5.065 4.6-7.582 6.899V37.59c0-15.453-1.565-16.845-14.774-17.883v-6.44H92.88z"></path><path fill="#3E7EEE" d="M109.597 22.613c-.555.444-1.124.904-1.707 1.38-7.815 6.358-17.238 14.43-28.127 24.1v-9.199c7.656-6.738 14.508-12.607 20.557-17.607 4.535.003 7.155.295 9.277 1.326z"></path><g fill="none"><use fill="#3E7EEE" style="mix-blend-mode:darken" xlink:href="#prefix__n"></use><use stroke="#3E7EEE" stroke-width="0.2px" xlink:href="#prefix__n" fill="none"></use></g><path fill="#3E7EEE" d="M81.812 74.396h8.636c-4.059 5.35-7.62 10.205-10.685 14.564v-11.8c.668-.905 1.351-1.826 2.05-2.764z"></path><path fill="#333D47" d="M80.427 112.34c1.305 5.844 5.114 6.653 16.026 7.381v6.424H40.822v-6.424c13.21-1.215 14.775-2.257 14.775-18.236V69.95c2.954-2.713 5.946-5.458 8.958-8.194 5.343-4.855 10.411-9.414 15.205-13.679v17.29h8.897c-2.433 3.162-4.715 6.172-6.849 9.029h-2.045v2.763c-6.1 8.283-10.83 15.185-14.137 20.632-6.6 10.873-7.923 16.334-4.723 19.473 2.708 2.66 7.328 2.534 19.524-4.925z"></path><path fill="#333D47" d="M76.269 104.332c1.023-.62 2.409.973 3.514.258.05 3.273.207 5.795.644 7.75-.036 2.975-3.444 4.265-4.845 5.034-9.5 5.209-14.818 3.677-17.178 1.373-3.2-3.14.623-16.932 7.222-27.805 3.307-5.446 8.037-12.349 14.137-20.631v18.653c-2.532 3.595-3.722 8.368-5.556 11.25-4.784 7.516-3.586 7.564 2.062 4.118z"></path><path fill="#333D47" d="M79.802 104.59c-1.113.715-2.177 1.383-3.192 2.004-5.648 3.45-8.679 4.684-10.206 5.117.491-1.763 2.045-5.53 6.83-13.031 1.83-2.877 4.014-6.116 6.549-9.716v12.537c-.02 1.088-.016 2.123.019 3.089z"></path><path fill="#3E7EEE" d="M55.6 60.583v9.367C29.285 94.146 6.353 116.325 6.108 116.563l-4.815-4.956c.28-.268 26.012-25.146 54.307-51.024z"></path><ellipse cx="405.113" cy="38.633" fill="#3E7EEE" rx="3.464" ry="3.461"></ellipse><ellipse cx="3.752" cy="114.079" fill="#3E7EEE" rx="3.464" ry="3.461"></ellipse></g><g fill="none"><path fill="#E2ECFD" d="M0 0H371V32H0z" transform="translate(19)"></path><g fill="#B2CCFA"><path d="M329.6 54.769l7.079-7.079c.376-.376.986-.376 1.362 0l7.078 7.079c.376.376.376.986 0 1.362l-2.336 2.336c-.368.368-.96.376-1.337.023l-.025-.023-3.38-3.381c-.368-.368-.96-.376-1.338-.024l-.024.024-3.381 3.38c-.368.369-.96.377-1.338.024l-.024-.023-2.336-2.336c-.376-.376-.376-.986 0-1.362zM282.644 54.769l7.079-7.079c.376-.376.986-.376 1.362 0l7.079 7.079c.376.376.376.986 0 1.362l-2.336 2.336c-.368.368-.96.376-1.338.023l-.024-.023-3.381-3.381c-.368-.368-.96-.376-1.338-.024l-.024.024-3.38 3.38c-.369.369-.96.377-1.339.024l-.024-.023-2.336-2.336c-.376-.376-.376-.986 0-1.362zM235.689 54.769l7.078-7.079c.376-.376.986-.376 1.362 0l7.079 7.079c.376.376.376.986 0 1.362l-2.336 2.336c-.368.368-.96.376-1.338.023l-.024-.023-3.38-3.381c-.369-.368-.96-.376-1.338-.024l-.025.024-3.38 3.38c-.369.369-.96.377-1.338.024l-.024-.023-2.336-2.336c-.376-.376-.376-.986 0-1.362zM188.733 54.769l7.079-7.079c.376-.376.986-.376 1.362 0l7.078 7.079c.376.376.376.986 0 1.362l-2.335 2.336c-.369.368-.96.376-1.338.023l-.025-.023-3.38-3.381c-.368-.368-.96-.376-1.338-.024l-.024.024-3.381 3.38c-.368.369-.96.377-1.338.024l-.024-.023-2.336-2.336c-.376-.376-.376-.986 0-1.362zM141.778 54.769l7.078-7.079c.376-.376.986-.376 1.362 0l7.079 7.079c.376.376.376.986 0 1.362l-2.336 2.336c-.368.368-.96.376-1.338.023l-.024-.023-3.38-3.381c-.369-.368-.96-.376-1.339-.024l-.024.024-3.38 3.38c-.369.369-.96.377-1.338.024l-.025-.023-2.335-2.336c-.377-.376-.377-.986 0-1.362zM94.822 54.769l7.078-7.079c.377-.376.986-.376 1.363 0l7.078 7.079c.376.376.376.986 0 1.362l-2.336 2.336c-.368.368-.96.376-1.337.023l-.025-.023-3.38-3.381c-.369-.368-.96-.376-1.338-.024l-.025.024-3.38 3.38c-.368.369-.96.377-1.338.024l-.024-.023-2.336-2.336c-.376-.376-.376-.986 0-1.362zM47.866 54.769l7.079-7.079c.376-.376.986-.376 1.362 0l7.078 7.079c.377.376.377.986 0 1.362l-2.335 2.336c-.368.368-.96.376-1.338.023l-.024-.023-3.381-3.381c-.368-.368-.96-.376-1.338-.024l-.024.024-3.38 3.38c-.369.369-.961.377-1.339.024l-.024-.023-2.336-2.336c-.376-.376-.376-.986 0-1.362zM.91 54.769l7.08-7.079c.375-.376.985-.376 1.361 0l7.079 7.079c.376.376.376.986 0 1.362l-2.336 2.336c-.368.368-.96.376-1.338.023l-.024-.023-3.38-3.381c-.369-.368-.96-.376-1.338-.024l-.025.024-3.38 3.38c-.369.369-.96.377-1.338.024l-.025-.023L.911 56.13c-.376-.376-.376-.986 0-1.362zM329.6 7.732l7.079-7.079c.376-.376.986-.376 1.362 0l7.078 7.079c.376.376.376.986 0 1.362l-2.336 2.336c-.368.368-.96.376-1.337.023l-.025-.023-3.38-3.38c-.368-.369-.96-.377-1.338-.024l-.024.023-3.381 3.38c-.368.369-.96.377-1.338.024l-.024-.023-2.336-2.336c-.376-.376-.376-.986 0-1.362zM282.644 7.732l7.079-7.079c.376-.376.986-.376 1.362 0l7.079 7.079c.376.376.376.986 0 1.362l-2.336 2.336c-.368.368-.96.376-1.338.023l-.024-.023-3.381-3.38c-.368-.369-.96-.377-1.338-.024l-.024.023-3.38 3.38c-.369.369-.96.377-1.339.024l-.024-.023-2.336-2.336c-.376-.376-.376-.986 0-1.362zM235.689 7.732l7.078-7.079c.376-.376.986-.376 1.362 0l7.079 7.079c.376.376.376.986 0 1.362l-2.336 2.336c-.368.368-.96.376-1.338.023l-.024-.023-3.38-3.38c-.369-.369-.96-.377-1.338-.024l-.025.023-3.38 3.38c-.369.369-.96.377-1.338.024l-.024-.023-2.336-2.336c-.376-.376-.376-.986 0-1.362zM188.733 7.732l7.079-7.079c.376-.376.986-.376 1.362 0l7.078 7.079c.376.376.376.986 0 1.362l-2.335 2.336c-.369.368-.96.376-1.338.023l-.025-.023-3.38-3.38c-.368-.369-.96-.377-1.338-.024l-.024.023-3.381 3.38c-.368.369-.96.377-1.338.024l-.024-.023-2.336-2.336c-.376-.376-.376-.986 0-1.362zM141.778 7.732l7.078-7.079c.376-.376.986-.376 1.362 0l7.079 7.079c.376.376.376.986 0 1.362l-2.336 2.336c-.368.368-.96.376-1.338.023l-.024-.023-3.38-3.38c-.369-.369-.96-.377-1.339-.024l-.024.023-3.38 3.38c-.369.369-.96.377-1.338.024l-.025-.023-2.335-2.336c-.377-.376-.377-.986 0-1.362zM94.822 7.732L101.9.653c.377-.376.986-.376 1.363 0l7.078 7.079c.376.376.376.986 0 1.362l-2.336 2.336c-.368.368-.96.376-1.337.023l-.025-.023-3.38-3.38c-.369-.369-.96-.377-1.338-.024l-.025.023-3.38 3.38c-.368.369-.96.377-1.338.024l-.024-.023-2.336-2.336c-.376-.376-.376-.986 0-1.362zM47.866 7.732L54.945.653c.376-.376.986-.376 1.362 0l7.078 7.079c.377.376.377.986 0 1.362L61.05 11.43c-.368.368-.96.376-1.338.023l-.024-.023-3.381-3.38c-.368-.369-.96-.377-1.338-.024l-.024.023-3.38 3.38c-.369.369-.961.377-1.339.024l-.024-.023-2.336-2.336c-.376-.376-.376-.986 0-1.362zM.91 7.732L7.99.653c.375-.376.985-.376 1.361 0l7.079 7.079c.376.376.376.986 0 1.362l-2.336 2.336c-.368.368-.96.376-1.338.023l-.024-.023-3.38-3.38c-.369-.369-.96-.377-1.338-.024l-.025.023-3.38 3.38c-.369.369-.96.377-1.338.024l-.025-.023L.911 9.094c-.376-.376-.376-.986 0-1.362z" transform="translate(19) matrix(1 0 0 -1 13 72)" fill="#B2CCFA"></path></g></g><g fill="none"><path fill="#E2ECFD" d="M0 0H371V32H0z" transform="matrix(1 0 0 -1 19 415)"></path><g fill="#B2CCFA"><path d="M329.6 54.769l7.079-7.079c.376-.376.986-.376 1.362 0l7.078 7.079c.376.376.376.986 0 1.362l-2.336 2.336c-.368.368-.96.376-1.337.023l-.025-.023-3.38-3.381c-.368-.368-.96-.376-1.338-.024l-.024.024-3.381 3.38c-.368.369-.96.377-1.338.024l-.024-.023-2.336-2.336c-.376-.376-.376-.986 0-1.362zM282.644 54.769l7.079-7.079c.376-.376.986-.376 1.362 0l7.079 7.079c.376.376.376.986 0 1.362l-2.336 2.336c-.368.368-.96.376-1.338.023l-.024-.023-3.381-3.381c-.368-.368-.96-.376-1.338-.024l-.024.024-3.38 3.38c-.369.369-.96.377-1.339.024l-.024-.023-2.336-2.336c-.376-.376-.376-.986 0-1.362zM235.689 54.769l7.078-7.079c.376-.376.986-.376 1.362 0l7.079 7.079c.376.376.376.986 0 1.362l-2.336 2.336c-.368.368-.96.376-1.338.023l-.024-.023-3.38-3.381c-.369-.368-.96-.376-1.338-.024l-.025.024-3.38 3.38c-.369.369-.96.377-1.338.024l-.024-.023-2.336-2.336c-.376-.376-.376-.986 0-1.362zM188.733 54.769l7.079-7.079c.376-.376.986-.376 1.362 0l7.078 7.079c.376.376.376.986 0 1.362l-2.335 2.336c-.369.368-.96.376-1.338.023l-.025-.023-3.38-3.381c-.368-.368-.96-.376-1.338-.024l-.024.024-3.381 3.38c-.368.369-.96.377-1.338.024l-.024-.023-2.336-2.336c-.376-.376-.376-.986 0-1.362zM141.778 54.769l7.078-7.079c.376-.376.986-.376 1.362 0l7.079 7.079c.376.376.376.986 0 1.362l-2.336 2.336c-.368.368-.96.376-1.338.023l-.024-.023-3.38-3.381c-.369-.368-.96-.376-1.339-.024l-.024.024-3.38 3.38c-.369.369-.96.377-1.338.024l-.025-.023-2.335-2.336c-.377-.376-.377-.986 0-1.362zM94.822 54.769l7.078-7.079c.377-.376.986-.376 1.363 0l7.078 7.079c.376.376.376.986 0 1.362l-2.336 2.336c-.368.368-.96.376-1.337.023l-.025-.023-3.38-3.381c-.369-.368-.96-.376-1.338-.024l-.025.024-3.38 3.38c-.368.369-.96.377-1.338.024l-.024-.023-2.336-2.336c-.376-.376-.376-.986 0-1.362zM47.866 54.769l7.079-7.079c.376-.376.986-.376 1.362 0l7.078 7.079c.377.376.377.986 0 1.362l-2.335 2.336c-.368.368-.96.376-1.338.023l-.024-.023-3.381-3.381c-.368-.368-.96-.376-1.338-.024l-.024.024-3.38 3.38c-.369.369-.961.377-1.339.024l-.024-.023-2.336-2.336c-.376-.376-.376-.986 0-1.362zM.91 54.769l7.08-7.079c.375-.376.985-.376 1.361 0l7.079 7.079c.376.376.376.986 0 1.362l-2.336 2.336c-.368.368-.96.376-1.338.023l-.024-.023-3.38-3.381c-.369-.368-.96-.376-1.338-.024l-.025.024-3.38 3.38c-.369.369-.96.377-1.338.024l-.025-.023L.911 56.13c-.376-.376-.376-.986 0-1.362zM329.6 7.732l7.079-7.079c.376-.376.986-.376 1.362 0l7.078 7.079c.376.376.376.986 0 1.362l-2.336 2.336c-.368.368-.96.376-1.337.023l-.025-.023-3.38-3.38c-.368-.369-.96-.377-1.338-.024l-.024.023-3.381 3.38c-.368.369-.96.377-1.338.024l-.024-.023-2.336-2.336c-.376-.376-.376-.986 0-1.362zM282.644 7.732l7.079-7.079c.376-.376.986-.376 1.362 0l7.079 7.079c.376.376.376.986 0 1.362l-2.336 2.336c-.368.368-.96.376-1.338.023l-.024-.023-3.381-3.38c-.368-.369-.96-.377-1.338-.024l-.024.023-3.38 3.38c-.369.369-.96.377-1.339.024l-.024-.023-2.336-2.336c-.376-.376-.376-.986 0-1.362zM235.689 7.732l7.078-7.079c.376-.376.986-.376 1.362 0l7.079 7.079c.376.376.376.986 0 1.362l-2.336 2.336c-.368.368-.96.376-1.338.023l-.024-.023-3.38-3.38c-.369-.369-.96-.377-1.338-.024l-.025.023-3.38 3.38c-.369.369-.96.377-1.338.024l-.024-.023-2.336-2.336c-.376-.376-.376-.986 0-1.362zM188.733 7.732l7.079-7.079c.376-.376.986-.376 1.362 0l7.078 7.079c.376.376.376.986 0 1.362l-2.335 2.336c-.369.368-.96.376-1.338.023l-.025-.023-3.38-3.38c-.368-.369-.96-.377-1.338-.024l-.024.023-3.381 3.38c-.368.369-.96.377-1.338.024l-.024-.023-2.336-2.336c-.376-.376-.376-.986 0-1.362zM141.778 7.732l7.078-7.079c.376-.376.986-.376 1.362 0l7.079 7.079c.376.376.376.986 0 1.362l-2.336 2.336c-.368.368-.96.376-1.338.023l-.024-.023-3.38-3.38c-.369-.369-.96-.377-1.339-.024l-.024.023-3.38 3.38c-.369.369-.96.377-1.338.024l-.025-.023-2.335-2.336c-.377-.376-.377-.986 0-1.362zM94.822 7.732L101.9.653c.377-.376.986-.376 1.363 0l7.078 7.079c.376.376.376.986 0 1.362l-2.336 2.336c-.368.368-.96.376-1.337.023l-.025-.023-3.38-3.38c-.369-.369-.96-.377-1.338-.024l-.025.023-3.38 3.38c-.368.369-.96.377-1.338.024l-.024-.023-2.336-2.336c-.376-.376-.376-.986 0-1.362zM47.866 7.732L54.945.653c.376-.376.986-.376 1.362 0l7.078 7.079c.377.376.377.986 0 1.362L61.05 11.43c-.368.368-.96.376-1.338.023l-.024-.023-3.381-3.38c-.368-.369-.96-.377-1.338-.024l-.024.023-3.38 3.38c-.369.369-.961.377-1.339.024l-.024-.023-2.336-2.336c-.376-.376-.376-.986 0-1.362zM.91 7.732L7.99.653c.375-.376.985-.376 1.361 0l7.079 7.079c.376.376.376.986 0 1.362l-2.336 2.336c-.368.368-.96.376-1.338.023l-.024-.023-3.38-3.38c-.369-.369-.96-.377-1.338-.024l-.025.023-3.38 3.38c-.369.369-.96.377-1.338.024l-.025-.023L.911 9.094c-.376-.376-.376-.986 0-1.362z" transform="matrix(1 0 0 -1 19 415) matrix(1 0 0 -1 13 72)" fill="#B2CCFA"></path></g></g></g></svg>